<?xml version="1.0" encoding="UTF-8"?>
<svg width="121px" height="45px" viewBox="0 0 121 45" version="1.1" xmlns="http://www.w3.org/2000/svg" xmlns:xlink="http://www.w3.org/1999/xlink">
    <!-- Generator: Sketch 61.2 (89653) - https://sketch.com -->
    <title>tides logo footer</title>
    <desc>Created with Sketch.</desc>
    <g id="Page-1" stroke="none" stroke-width="1" fill="none" fill-rule="evenodd">
        <g id="desktop---tides-daring-change" transform="translate(-434.000000, -5470.000000)">
            <g id="footer-logo-+-text" transform="translate(205.000000, 5470.000000)">
                <g id="tides-logo-footer" transform="translate(229.000000, 0.000000)">
                    <polygon id="Fill-1" fill="#EEE951" points="84.6845044 29.822615 89.9315841 28.9580575 92.8796814 25.9408673"></polygon>
                    <polygon id="Fill-2" fill="#B1C035" points="94.6631947 25.3878252 95.9883053 22.7591084 92.8797212 25.9407677 93.8123761 25.4991305"></polygon>
                    <polygon id="Fill-3" fill="#B1C035" points="89.9315044 28.9580973 87.0517035 31.9053982 91.8330531 31.0022124 93.1290929 28.4312389"></polygon>
                    <polygon id="Fill-4" fill="#9CA838" points="94.6631947 25.3878252 93.8123761 25.4991305 92.8797212 25.9407677 89.9314248 28.9581571 93.1290133 28.4312987"></polygon>
                    <polygon id="Fill-5" fill="#63B445" points="91.8330133 31.0021327 89.9854248 34.6672434 95.7967965 33.3817566 96.5952478 30.102531"></polygon>
                    <polygon id="Fill-6" fill="#63B445" points="98.9037279 20.6230619 100.621692 13.5684159 95.9882854 22.7591681 98.0122898 20.6877743"></polygon>
                    <polygon id="Fill-7" fill="#58A545" points="97.3926836 26.828104 94.329896 28.233458 93.1290332 28.4313783 91.8329934 31.0021527 96.5952279 30.1025509"></polygon>
                    <polygon id="Fill-8" fill="#58A545" points="97.8445752 24.9724912 98.9036681 20.6230221 98.0124292 20.6877345 95.9884248 22.7591283 94.663115 25.3878451"></polygon>
                    <polygon id="Fill-9" fill="#509844" points="94.6631947 25.3878252 93.1290133 28.4312987 94.3298761 28.2333783 97.3926637 26.8280243 97.8446549 24.9724712"></polygon>
                    <polygon id="Fill-10" fill="#38AA87" points="101.622305 12.4301947 101.637239 9.39767257 100.621752 13.5685354 101.202173 12.416854"></polygon>
                    <polygon id="Fill-11" fill="#38AA87" points="95.7968363 33.3817965 94.5095575 38.6677035 101.503075 36.5590752 101.525177 32.1150265"></polygon>
                    <polygon id="Fill-12" fill="#2E9D7F" points="101.553093 26.4679845 96.9495531 30.0357279 96.5953274 30.1026305 95.7968761 33.3818562 101.525018 32.1148872"></polygon>
                    <polygon id="Fill-13" fill="#2E9D7F" points="101.582841 20.4288252 101.622265 12.4301748 101.202133 12.4168341 100.621712 13.5685155 98.9037478 20.6231615"></polygon>
                    <polygon id="Fill-14" fill="#2D8E76" points="97.3926836 26.828104 96.5952279 30.1025509 96.9494535 30.0356482 101.553192 26.4679049 101.560759 24.9158031"></polygon>
                    <polygon id="Fill-15" fill="#2D8E76" points="101.582841 20.4288252 98.9037478 20.6231615 97.8446549 24.9724314 101.56273 24.4867898"></polygon>
                    <polygon id="Fill-16" fill="#238069" points="101.56281 24.48675 97.8445354 24.9723916 97.3927434 26.8281438 101.560619 24.9156438"></polygon>
                    <polygon id="Fill-17" fill="#04A9C5" points="101.683673 0.000159292035 101.637279 9.39759292 102.729425 4.91272566 119.149845 7.30031416 109.111062 34.2650708 101.503075 36.5590752 101.462058 44.8633673 119.12635 37.4724159 120.567942 3.95438496"></polygon>
                    <polygon id="Fill-18" fill="#039CB6" points="119.149885 7.30045354 102.729465 4.91266593 101.637319 9.39753319 101.622385 12.4302544 116.317872 12.8951881 101.790637 32.0562279 101.525018 32.1149668 101.503115 36.5590155 109.111102 34.2652102"></polygon>
                    <polygon id="Fill-19" fill="#088EA7" points="110.14654 19.8078451 101.553133 26.4680442 101.525058 32.1149469 101.790677 32.056208 116.317912 12.8951681 101.622226 12.4302345 101.582801 20.428885"></polygon>
                    <polygon id="Fill-20" fill="#148095" points="101.582841 20.4288252 101.56273 24.4867898 102.866137 24.3165465 101.560739 24.9156836 101.553173 26.4679845 110.14658 19.8077854"></polygon>
                    <polygon id="Fill-21" fill="#027689" points="102.866197 24.3166062 101.56279 24.4866504 101.5606 24.9157434"></polygon>
                    <polygon id="Fill-22" fill="#333740" points="19.5867478 30.1577655 23.8193363 30.1577655 23.8193363 12.7342035 19.5867478 12.7342035"></polygon>
                    <g id="Group-33" transform="translate(0.000000, 12.208540)" fill="#333740">
                        <path d="M42.2518142,9.18804425 C42.2518142,8.20381858 42.0919248,7.38804425 41.7719469,6.73972566 C41.4521681,6.09160619 41.0256637,5.57510177 40.4926327,5.18921681 C39.9584071,4.8039292 39.3519027,4.52895133 38.6709292,4.36488053 C37.9899558,4.20100885 37.2888717,4.11857522 36.5666814,4.11857522 L34.4753761,4.11857522 L34.4753761,14.3068938 L36.469115,14.3068938 C37.2235619,14.3068938 37.9487389,14.2208761 38.6468363,14.0482434 C39.3439381,13.8764071 39.9584071,13.5932655 40.4926327,13.1994159 C41.0256637,12.8055664 41.4521681,12.2810973 41.7719469,11.624615 C42.0919248,10.9683319 42.2518142,10.1561416 42.2518142,9.18804425 M46.6323451,9.18804425 C46.6323451,10.7138628 46.3496018,12.0306106 45.7833186,13.1380885 C45.2170354,14.2453673 44.4707522,15.1559204 43.5432743,15.8695487 C42.616792,16.583177 41.5708407,17.1086416 40.4060177,17.4447478 C39.2411947,17.7810531 38.0592478,17.9491062 36.8623673,17.9491062 L30.3654425,17.9491062 L30.3654425,0.525544248 L36.6652434,0.525544248 C37.8963717,0.525544248 39.1093805,0.669504425 40.3074558,0.956628319 C41.5053319,1.24375221 42.5715929,1.71963717 43.5070354,2.38388496 C44.4414823,3.04833186 45.1959292,3.93837611 45.7711726,5.0540177 C46.3446239,6.17005752 46.6323451,7.54793363 46.6323451,9.18804425" id="Fill-23"></path>
                        <polygon id="Fill-25" points="51.3809602 17.9491062 51.3809602 0.525544248 63.0950973 0.525544248 63.0950973 4.06979204 55.4417124 4.06979204 55.4417124 7.36693805 62.6767566 7.36693805 62.6767566 10.7385531 55.4417124 10.7385531 55.4417124 14.3560752 63.5379292 14.3560752 63.5379292 17.9491062"></polygon>
                        <path d="M78.968708,5.05397788 C78.6077124,4.59481858 78.1358097,4.22964159 77.5535973,3.95864602 C76.9711858,3.68804867 76.4096814,3.55265044 75.8686858,3.55265044 C75.5889292,3.55265044 75.3061858,3.57734071 75.0186637,3.62672124 C74.7321372,3.67590265 74.4734867,3.7704823 74.2441062,3.90926549 C74.0137301,4.04904425 73.8215841,4.22964159 73.665677,4.45105752 C73.509969,4.67227434 73.4313186,4.95541593 73.4313186,5.29988496 C73.4313186,5.59517257 73.4938407,5.84167699 73.6164956,6.03820354 C73.7391504,6.23532743 73.9203451,6.40736283 74.1576903,6.55530531 C74.3950354,6.70265044 74.6785752,6.83784956 75.0067168,6.96110177 C75.3344602,7.08435398 75.7038186,7.2115885 76.1139956,7.34240708 C76.7045708,7.53933186 77.3200354,7.75716372 77.959792,7.99470796 C78.5995487,8.23245133 79.1819602,8.54824779 79.7070265,8.94209735 C80.2320929,9.3359469 80.6665619,9.82437611 81.0116283,10.4059912 C81.3555,10.989 81.528531,11.7147743 81.528531,12.5843097 C81.528531,13.5850619 81.3435531,14.4508142 80.9743938,15.1805708 C80.6052345,15.9107257 80.1094381,16.513646 79.4858097,16.989531 C78.8621814,17.4654159 78.1479558,17.8178496 77.3443274,18.0476283 C76.5406991,18.2770088 75.7117832,18.3922965 74.8585752,18.3922965 C73.6125133,18.3922965 72.4064735,18.1744646 71.2416504,17.7397965 C70.0768274,17.3053274 69.1083319,16.6856814 68.3377566,15.8820531 L71.093708,13.0765221 C71.5204115,13.6017876 72.0825133,14.0402389 72.779615,14.3928717 C73.4767168,14.7459027 74.1696372,14.9219204 74.8585752,14.9219204 C75.1705885,14.9219204 75.4742389,14.8892655 75.7701239,14.8239558 C76.0648142,14.758646 76.3232655,14.6515221 76.5444823,14.5039779 C76.7666947,14.3560354 76.9429115,14.1595088 77.073531,13.9132035 C77.2055442,13.6670973 77.270854,13.3720088 77.270854,13.0273407 C77.270854,12.699 77.1884204,12.4204381 77.0243496,12.1904602 C76.8602788,11.9612788 76.6269159,11.7520088 76.3232655,11.5628496 C76.0194159,11.374885 75.642292,11.2022522 75.1916947,11.0463451 C74.7401018,10.8904381 74.2271814,10.722385 73.6537301,10.5419867 C73.0954115,10.3613894 72.5492389,10.1481372 72.0172035,9.90163274 C71.4829779,9.65572566 71.0082876,9.3399292 70.5899469,8.95424336 C70.1714071,8.56895575 69.8345044,8.10183186 69.581031,7.55147788 C69.3253673,7.00231858 69.1989292,6.33349115 69.1989292,5.54579204 C69.1989292,4.57809292 69.395854,3.74937611 69.7891062,3.06043805 C70.1835531,2.37130088 70.7006549,1.80561504 71.3402124,1.36238496 C71.979969,0.919353982 72.7011637,0.59599115 73.5057876,0.39030531 C74.309615,0.185615044 75.1214071,0.0830707965 75.9421593,0.0830707965 C76.9267832,0.0830707965 77.9305221,0.263469027 78.9565619,0.624066372 C79.9816062,0.985261062 80.8798142,1.51829204 81.651385,2.22395575 L78.968708,5.05397788 Z" id="Fill-27"></path>
                        <polygon id="Fill-29" points="4.97413274 17.9411416 9.22683186 17.9411416 9.22683186 3.96565487 4.97413274 6.48226991"></polygon>
                        <polygon id="Fill-31" points="3.98230088e-05 0.334433628 3.98230088e-05 3.96569469 3.36826991 3.96569469 4.97413274 3.96569469 9.22683186 3.96569469 14.1999292 3.96569469 14.1999292 0.334433628"></polygon>
                    </g>
                </g>
            </g>
        </g>
    </g>
</svg>