<?xml version="1.0" encoding="UTF-8"?>
<svg width="190px" height="79px" viewBox="0 0 190 79" version="1.1" xmlns="http://www.w3.org/2000/svg" xmlns:xlink="http://www.w3.org/1999/xlink">
    <title>tides logo</title>
    <defs>
        <polygon id="path-1" points="0 77.3098558 188.583348 77.3098558 188.583348 0.172920112 0 0.172920112"></polygon>
    </defs>
    <g id="Page-1" stroke="none" stroke-width="1" fill="none" fill-rule="evenodd">
        <g id="desktop---tides-daring-change" transform="translate(-405.000000, -77.000000)">
            <g id="tides-logo" transform="translate(405.500000, 77.200557)">
                <path d="M3.46785785,64.774903 L0.00013572298,73.5490114 L0.945785583,73.5490114 L1.82391326,71.2439079 L5.90001364,71.2439079 L6.77848063,73.5490114 L7.72379118,73.5490114 L4.25640836,64.774903 L3.46785785,64.774903 Z M3.8617938,65.8154115 L5.58479702,70.4263655 L2.12793273,70.4263655 L3.8617938,65.8154115 Z" id="Fill-1" fill="#868A8E"></path>
                <polygon id="Fill-2" fill="#868A8E" points="13.0272005 73.548974 12.216595 73.548974 12.216595 64.7748656 17.0242423 64.7748656 17.0242423 65.592408 13.0272005 65.592408 13.0272005 68.5794816 16.7426171 68.5794816 16.7426171 69.3973974 13.0272005 69.3973974"></polygon>
                <g id="Group-58">
                    <path d="M20.8410439,68.3439666 C19.624966,68.3439666 18.8598277,69.3478743 18.8598277,70.6490702 C18.8598277,71.950266 19.624966,72.9541737 20.8410439,72.9541737 C22.068319,72.9541737 22.8344752,71.950266 22.8344752,70.6490702 C22.8344752,69.3478743 22.068319,68.3439666 20.8410439,68.3439666 M20.8410439,73.6977675 C19.2086358,73.6977675 18.0492222,72.3969452 18.0492222,70.6490702 C18.0492222,68.9015686 19.2086358,67.6003728 20.8410439,67.6003728 C22.4853278,67.6003728 23.6447414,68.9015686 23.6447414,70.6490702 C23.6447414,72.3969452 22.4853278,73.6977675 20.8410439,73.6977675" id="Fill-3" fill="#868A8E"></path>
                    <path d="M25.3002563,69.5585157 C25.3002563,69.0378879 25.277862,68.5919557 25.2551285,67.7490169 L25.9870146,67.7490169 L25.9870146,68.8276201 L26.0094089,68.8276201 C26.2235119,68.2076473 26.7748865,67.6003728 27.6984814,67.6003728 C27.9122451,67.6003728 28.0924173,67.6253958 28.249856,67.6746948 L28.1036145,68.4799125 C28.013698,68.4436851 27.8783143,68.4182887 27.6757478,68.4182887 C26.5499257,68.4182887 26.0430003,69.4968919 26.0430003,70.27746 L26.0430003,73.5491234 L25.3002563,73.5491234 L25.3002563,69.5585157 Z" id="Fill-5" fill="#868A8E"></path>
                    <path d="M33.6091493,69.1128075 C33.3614549,68.6911514 32.8772631,68.3438172 32.2919578,68.3438172 C31.0643434,68.3195412 30.3104023,69.3230754 30.3104023,70.6489208 C30.3104023,71.9751396 31.0643434,72.9790473 32.2919578,72.9540243 C32.8772631,72.9540243 33.3614549,72.6070636 33.6091493,72.1857809 L34.2171882,72.6937104 C33.6997444,73.3629822 33.0011103,73.6852934 32.2919578,73.6976181 C30.5696332,73.7230146 29.5001361,72.3967958 29.5001361,70.6489208 C29.5001361,68.9017927 30.5696332,67.5755739 32.2919578,67.6002234 C33.0011103,67.6129216 33.6997444,67.9348593 34.2171882,68.6041311 L33.6091493,69.1128075 Z" id="Fill-7" fill="#868A8E"></path>
                    <path d="M40.0271497,70.2029885 C40.0271497,69.1001093 39.38518,68.3438172 38.3156829,68.3438172 C37.3472995,68.3438172 36.4695111,69.2487534 36.4695111,70.2029885 L40.0271497,70.2029885 Z M36.4467775,70.8722603 C36.536694,72.0367634 37.3364416,72.9540243 38.3835444,72.9540243 C39.1714163,72.9540243 39.7794552,72.4707443 40.0722776,71.9504901 L40.6463858,72.4707443 C40.0271497,73.3387062 39.2504749,73.6976181 38.3835444,73.6976181 C36.8183191,73.6976181 35.6589056,72.3967958 35.6589056,70.6489208 C35.6589056,68.9017927 36.8183191,67.6002234 38.3156829,67.6002234 C39.9144996,67.6129216 40.8377552,68.9141175 40.8377552,70.5002767 L40.8377552,70.8722603 L36.4467775,70.8722603 Z" id="Fill-9" fill="#868A8E"></path>
                    <path d="M48.3370266,68.4927974 L47.087018,68.4927974 L47.087018,73.5489367 L46.3435954,73.5489367 L46.3435954,68.4927974 L45.229649,68.4927974 L45.229649,67.7492036 L46.3435954,67.7492036 L46.3435954,66.1630444 C46.3435954,64.6261842 47.0422294,64.0312345 48.1117265,64.0312345 C48.3258295,64.0312345 48.5395932,64.0685822 48.7533569,64.1178812 L48.6183125,64.8614751 C48.4381402,64.812176 48.235913,64.7748283 48.0442043,64.7748283 C47.2220623,64.7748283 47.087018,65.4194506 47.087018,66.2616425 L47.087018,67.7492036 L48.3370266,67.7492036 L48.3370266,68.4927974 Z" id="Fill-11" fill="#868A8E"></path>
                    <path d="M52.1877251,68.3439666 C50.9716472,68.3439666 50.2065089,69.3478743 50.2065089,70.6490702 C50.2065089,71.950266 50.9716472,72.9541737 52.1877251,72.9541737 C53.4150001,72.9541737 54.180817,71.950266 54.180817,70.6490702 C54.180817,69.3478743 53.4150001,68.3439666 52.1877251,68.3439666 M52.1877251,73.6977675 C50.5553169,73.6977675 49.3952248,72.3969452 49.3952248,70.6490702 C49.3952248,68.9015686 50.5553169,67.6003728 52.1877251,67.6003728 C53.832009,67.6003728 54.9914225,68.9015686 54.9914225,70.6490702 C54.9914225,72.3969452 53.832009,73.6977675 52.1877251,73.6977675" id="Fill-13" fill="#868A8E"></path>
                    <path d="M56.6464285,69.5585157 C56.6464285,69.0378879 56.6236949,68.5919557 56.6013006,67.7490169 L57.3331868,67.7490169 L57.3331868,68.8276201 L57.3555811,68.8276201 C57.5696841,68.2076473 58.1210587,67.6003728 59.0446536,67.6003728 C59.2584173,67.6003728 59.4382502,67.6253958 59.5960282,67.6746948 L59.4497867,68.4799125 C59.3598702,68.4436851 59.2244865,68.4182887 59.02192,68.4182887 C57.8960979,68.4182887 57.3891725,69.4968919 57.3891725,70.27746 L57.3891725,73.5491234 L56.6464285,73.5491234 L56.6464285,69.5585157 Z" id="Fill-15" fill="#868A8E"></path>
                    <path d="M67.4779366,66.2245561 C67.1287893,65.6550029 66.6106668,65.369666 65.9351057,65.369666 C65.1017666,65.369666 64.2351753,65.852946 64.2351753,66.9561987 C64.2351753,69.3232995 68.3224729,68.0710292 68.3224729,71.2317698 C68.3224729,72.8302538 66.9598142,73.7721642 65.6986084,73.7721642 C64.7302249,73.7721642 63.7957722,73.3878558 63.1877333,72.4709684 L63.9196194,71.8887169 C64.2572303,72.5333392 64.8992,72.9542484 65.7325391,72.9542484 C66.5316082,72.9542484 67.4440059,72.3843216 67.4440059,71.3557644 C67.4440059,68.8769938 63.3567084,70.2525117 63.3567084,67.042472 C63.3567084,65.3450165 64.6403084,64.5517501 65.9351057,64.5517501 C66.8359669,64.5517501 67.5563167,64.8243888 68.1870892,65.6176551 L67.4779366,66.2245561 Z" id="Fill-17" fill="#868A8E"></path>
                    <path d="M72.5559441,68.3439666 C71.3398662,68.3439666 70.5747279,69.3478743 70.5747279,70.6490702 C70.5747279,71.950266 71.3398662,72.9541737 72.5559441,72.9541737 C73.7832191,72.9541737 74.549036,71.950266 74.549036,70.6490702 C74.549036,69.3478743 73.7832191,68.3439666 72.5559441,68.3439666 M72.5559441,73.6977675 C70.9235359,73.6977675 69.7634438,72.3969452 69.7634438,70.6490702 C69.7634438,68.9015686 70.9235359,67.6003728 72.5559441,67.6003728 C74.200228,67.6003728 75.3596415,68.9015686 75.3596415,70.6490702 C75.3596415,72.3969452 74.200228,73.6977675 72.5559441,73.6977675" id="Fill-19" fill="#868A8E"></path>
                    <path d="M80.9440314,69.1128075 C80.6963369,68.6911514 80.2121452,68.3438172 79.6268398,68.3438172 C78.3992255,68.3195412 77.6452843,69.3230754 77.6452843,70.6489208 C77.6452843,71.9751396 78.3992255,72.9790473 79.6268398,72.9540243 C80.2121452,72.9540243 80.6963369,72.6070636 80.9440314,72.1857809 L81.5520703,72.6937104 C81.0346264,73.3629822 80.3359924,73.6852934 79.6268398,73.6976181 C77.9045152,73.7230146 76.8346788,72.3967958 76.8346788,70.6489208 C76.8346788,68.9017927 77.9045152,67.5755739 79.6268398,67.6002234 C80.3359924,67.6129216 81.0346264,67.9348593 81.5520703,68.6041311 L80.9440314,69.1128075 Z" id="Fill-21" fill="#868A8E"></path>
                    <mask id="mask-2" fill="white">
                        <use xlink:href="#path-1"></use>
                    </mask>
                    <g id="Clip-24"></g>
                    <path d="M83.4507086,73.5489367 L84.2732152,73.5489367 L84.2732152,67.7492036 L83.4507086,67.7492036 L83.4507086,73.5489367 Z M83.8619619,66.1133719 C83.5626295,66.1133719 83.2636728,65.8653828 83.2636728,65.5184221 C83.2636728,65.171088 83.5626295,64.9230989 83.8619619,64.9230989 C84.160543,64.9230989 84.4598753,65.171088 84.4598753,65.5184221 C84.4598753,65.8653828 84.160543,66.1133719 83.8619619,66.1133719 L83.8619619,66.1133719 Z" id="Fill-23" fill="#868A8E" mask="url(#mask-2)"></path>
                    <path d="M89.3551237,70.6618057 C88.6011826,70.6618057 86.9009129,70.7234295 86.9009129,71.8886795 C86.9009129,72.6569229 87.542204,72.954211 88.1390458,72.954211 C89.2200793,72.954211 89.7378625,72.1116456 89.7378625,71.0830884 L89.7378625,70.6618057 L89.3551237,70.6618057 Z M89.7378625,69.9925339 L89.7378625,69.8438899 C89.7378625,68.8399822 89.299138,68.344004 88.3867403,68.344004 C87.7678435,68.344004 87.2273267,68.5796683 86.7770657,69.0256005 L86.3268047,68.4437225 C86.8109965,67.8980718 87.5649376,67.6004101 88.5560547,67.6004101 C89.591621,67.6004101 90.4812851,68.2446589 90.4812851,69.6575246 L90.4812851,72.247965 C90.4812851,72.6935237 90.526413,73.2388009 90.5712016,73.5487873 L89.8505126,73.5487873 C89.805724,73.2641974 89.7833297,72.9172367 89.7833297,72.6072504 L89.7605961,72.6072504 C89.3323901,73.3754937 88.7470848,73.6978049 87.9025485,73.6978049 C86.9680958,73.6978049 86.0903074,73.1278781 86.0903074,71.9999758 C86.0903074,70.116155 88.1054544,69.9925339 89.3663209,69.9925339 L89.7378625,69.9925339 Z" id="Fill-25" fill="#868A8E" mask="url(#mask-2)"></path>
                    <polygon id="Fill-26" fill="#868A8E" mask="url(#mask-2)" points="92.7110101 73.5489367 93.4540934 73.5489367 93.4540934 64.1798785 92.7110101 64.1798785"></polygon>
                    <path d="M104.645335,66.3857864 C104.104479,65.7542358 103.350538,65.369554 102.370957,65.369554 C100.32188,65.369554 99.0946047,67.1413315 99.0946047,69.1622186 C99.0946047,71.1823588 100.32188,72.9541363 102.370957,72.9541363 C103.19276,72.9541363 103.981311,72.7061472 104.578152,72.3345371 L104.578152,69.397136 L102.674638,69.397136 L102.674638,68.5795936 L105.388419,68.5795936 L105.388419,72.8798143 C104.498754,73.4624393 103.339002,73.7720522 102.370957,73.7720522 C99.995466,73.7720522 98.216477,71.8262341 98.216477,69.1622186 C98.216477,66.4974562 99.995466,64.5516381 102.370957,64.5516381 C103.631824,64.5516381 104.543882,64.9482713 105.253374,65.7288394 L104.645335,66.3857864 Z" id="Fill-27" fill="#868A8E" mask="url(#mask-2)"></path>
                    <path d="M110.050062,68.3439666 C108.833984,68.3439666 108.068846,69.3478743 108.068846,70.6490702 C108.068846,71.950266 108.833984,72.9541737 110.050062,72.9541737 C111.277337,72.9541737 112.043493,71.950266 112.043493,70.6490702 C112.043493,69.3478743 111.277337,68.3439666 110.050062,68.3439666 M110.050062,73.6977675 C108.417654,73.6977675 107.257901,72.3969452 107.257901,70.6490702 C107.257901,68.9015686 108.417654,67.6003728 110.050062,67.6003728 C111.694346,67.6003728 112.854099,68.9015686 112.854099,70.6490702 C112.854099,72.3969452 111.694346,73.6977675 110.050062,73.6977675" id="Fill-28" fill="#868A8E" mask="url(#mask-2)"></path>
                    <path d="M116.951847,68.3439666 C115.735769,68.3439666 114.970291,69.3478743 114.970291,70.6490702 C114.970291,71.950266 115.735769,72.9541737 116.951847,72.9541737 C118.179122,72.9541737 118.944939,71.950266 118.944939,70.6490702 C118.944939,69.3478743 118.179122,68.3439666 116.951847,68.3439666 M116.951847,73.6977675 C115.319099,73.6977675 114.159686,72.3969452 114.159686,70.6490702 C114.159686,68.9015686 115.319099,67.6003728 116.951847,67.6003728 C118.596131,67.6003728 119.755544,68.9015686 119.755544,70.6490702 C119.755544,72.3969452 118.596131,73.6977675 116.951847,73.6977675" id="Fill-29" fill="#868A8E" mask="url(#mask-2)"></path>
                    <path d="M124.00045,72.954099 C125.216528,72.954099 126.105513,71.9501913 126.105513,70.6489955 C126.105513,69.3481731 125.216528,68.3438919 124.00045,68.3438919 C122.773175,68.3438919 122.007697,69.3481731 122.007697,70.6489955 C122.007697,71.9501913 122.773175,72.954099 124.00045,72.954099 L124.00045,72.954099 Z M126.815005,73.5490487 L126.072261,73.5490487 L126.072261,72.5824888 L126.049528,72.5824888 C125.565336,73.3630569 124.698406,73.6976928 124.00045,73.6976928 C122.356505,73.6976928 121.196753,72.3968705 121.196753,70.6489955 C121.196753,68.9014939 122.356505,67.6002981 124.00045,67.6002981 C124.698406,67.6002981 125.565336,67.934934 126.049528,68.7158756 L126.072261,68.7158756 L126.072261,64.1799906 L126.815005,64.1799906 L126.815005,73.5490487 Z" id="Fill-30" fill="#868A8E" mask="url(#mask-2)"></path>
                    <polygon id="Fill-31" fill="#F5EC4E" mask="url(#mask-2)" points="132.530843 51.4492235 140.726814 49.9627828 145.332574 44.7748059"></polygon>
                    <polygon id="Fill-32" fill="#B5C427" mask="url(#mask-2)" points="148.118424 43.8239321 150.188538 39.3041066 145.33237 44.7748059 146.789017 44.0151526"></polygon>
                    <polygon id="Fill-33" fill="#B5C427" mask="url(#mask-2)" points="140.726916 49.962596 136.228717 55.0299396 143.697214 53.4770199 145.721861 49.056913"></polygon>
                    <polygon id="Fill-34" fill="#A3AF2F" mask="url(#mask-2)" points="148.118424 43.8239321 146.789017 44.0151526 145.33237 44.7748059 140.72695 49.9627828 145.721895 49.0570997"></polygon>
                    <polygon id="Fill-35" fill="#62BA46" mask="url(#mask-2)" points="143.69718 53.4770946 140.81103 59.7787816 149.888862 57.5689148 151.136495 51.9301506"></polygon>
                    <polygon id="Fill-36" fill="#62BA46" mask="url(#mask-2)" points="154.742214 35.631515 157.425797 23.5020841 150.188369 39.3042933 153.349696 35.7428113"></polygon>
                    <polygon id="Fill-37" fill="#58AA40" mask="url(#mask-2)" points="152.381991 46.3004244 147.597417 48.7168243 145.721725 49.0570623 143.697078 53.4771693 151.136394 51.9302252"></polygon>
                    <polygon id="Fill-38" fill="#58AA40" mask="url(#mask-2)" points="153.087785 43.1098056 154.742248 35.6316644 153.34973 35.7425872 150.188403 39.3044427 148.118288 43.8238947"></polygon>
                    <polygon id="Fill-39" fill="#4F9C3A" mask="url(#mask-2)" points="148.118424 43.8239321 145.721895 49.0570997 147.597587 48.7168616 152.381822 46.3004618 153.08792 43.109843"></polygon>
                    <polygon id="Fill-40" fill="#3DAF8C" mask="url(#mask-2)" points="158.988884 21.5447629 159.012296 16.3306426 157.426034 23.5021588 158.332324 21.5219808"></polygon>
                    <polygon id="Fill-41" fill="#3DAF8C" mask="url(#mask-2)" points="149.888862 57.5689522 147.878126 66.6571552 158.802808 63.031435 158.837078 55.3904575"></polygon>
                    <polygon id="Fill-42" fill="#36A080" mask="url(#mask-2)" points="158.880509 45.681124 151.689567 51.8154929 151.136495 51.9301506 149.888862 57.5689148 158.837078 55.3904202"></polygon>
                    <polygon id="Fill-43" fill="#36A080" mask="url(#mask-2)" points="158.927232 35.2974019 158.988986 21.5448376 158.332426 21.5220555 157.425797 23.50186 154.742214 35.6316644"></polygon>
                    <polygon id="Fill-44" fill="#2F9275" mask="url(#mask-2)" points="152.381991 46.3004244 151.136394 51.9302252 151.689465 51.8155676 158.880408 45.6811986 158.892283 43.0119545"></polygon>
                    <polygon id="Fill-45" fill="#2F9275" mask="url(#mask-2)" points="158.927232 35.2974019 154.742214 35.6316644 153.087751 43.1098056 158.895676 42.2747098"></polygon>
                    <polygon id="Fill-46" fill="#268369" mask="url(#mask-2)" points="158.895744 42.2745977 153.087819 43.1096936 152.382059 46.3003124 158.892351 43.0122159"></polygon>
                    <polygon id="Fill-47" fill="#00AECA" mask="url(#mask-2)" points="159.084976 0.172845417 159.012364 16.3306053 160.718063 8.61941401 186.368009 12.7246794 170.686576 59.0878107 158.802672 63.0313603 158.738543 77.3101546 186.331703 64.6018335 188.583348 6.97163099"></polygon>
                    <polygon id="Fill-48" fill="#00A0BA" mask="url(#mask-2)" points="186.368077 12.7248288 160.718131 8.61918992 159.012432 16.3307547 158.98902 21.5448749 181.944526 22.3441169 159.251983 55.2893198 158.83701 55.3905322 158.80274 63.0315097 170.686644 59.0875866"></polygon>
                    <polygon id="Fill-49" fill="#0093AA" mask="url(#mask-2)" points="172.30436 34.2298537 158.88034 45.6810493 158.837248 55.3903455 159.251881 55.2895065 181.944424 22.3439302 158.988918 21.5446882 158.927164 35.2972525"></polygon>
                    <polygon id="Fill-50" fill="#00849A" mask="url(#mask-2)" points="158.927232 35.2974019 158.895676 42.2747098 160.93186 41.9819034 158.892283 43.0119545 158.880408 45.6811986 172.304428 34.2300031"></polygon>
                    <polygon id="Fill-51" fill="#007689" mask="url(#mask-2)" points="160.931928 41.9820901 158.895744 42.274523 158.892351 43.0121412"></polygon>
                    <polygon id="Fill-52" fill="#333740" mask="url(#mask-2)" points="30.8433864 52.0250512 37.4551314 52.0250512 37.4551314 22.0672954 30.8433864 22.0672954"></polygon>
                    <path d="M66.2477775,36.9614686 C66.2477775,35.2692417 65.9980472,33.86646 65.4985866,32.7520029 C64.9987868,31.6375459 64.3323869,30.7494162 63.4997265,30.0861201 C62.6653694,29.4235709 61.718023,28.9507483 60.6542942,28.6687727 C59.5905653,28.3867972 58.4952809,28.2452492 57.3674229,28.2452492 L54.1005708,28.2452492 L54.1005708,45.7628408 L57.2147346,45.7628408 C58.3934887,45.7628408 59.5260969,45.6145702 60.6166311,45.3180291 C61.7054687,45.0222348 62.6653694,44.5355936 63.4997265,43.8584787 C64.3323869,43.1817374 64.9987868,42.2797891 65.4985866,41.1511399 C65.9980472,40.0224907 66.2477775,38.6260581 66.2477775,36.9614686 M73.0905908,36.9614686 C73.0905908,39.5851485 72.6491518,41.848796 71.764238,43.7531581 C70.8796635,45.6571467 69.7138031,47.2223912 68.2652996,48.449265 C66.8181533,49.6761388 65.1840486,50.5799545 63.3646821,51.1577243 C61.5453155,51.736241 59.6991437,52.0249392 57.8292204,52.0249392 L47.6805346,52.0249392 L47.6805346,22.0675568 L57.5211292,22.0675568 C59.4443238,22.0675568 61.3393559,22.3147989 63.2106365,22.8085363 C65.0819171,23.3022736 66.7475774,24.1201895 68.2086352,25.2626573 C69.6683359,26.4047517 70.8467506,27.9356363 71.7455761,29.8534436 C72.6410084,31.7719978 73.0905908,34.141713 73.0905908,36.9614686" id="Fill-53" fill="#333740" mask="url(#mask-2)"></path>
                    <polygon id="Fill-54" fill="#333740" mask="url(#mask-2)" points="80.5082927 52.0251259 80.5082927 22.06737 98.8068041 22.06737 98.8068041 28.1614035 86.8513062 28.1614035 86.8513062 33.8304194 98.1529587 33.8304194 98.1529587 39.6275382 86.8513062 39.6275382 86.8513062 45.8474335 99.4979734 45.8474335 99.4979734 52.0251259"></polygon>
                    <path d="M123.602137,29.8533689 C123.038208,29.0638373 122.301232,28.436395 121.391549,27.970295 C120.481866,27.5049419 119.605095,27.2722654 118.75988,27.2722654 C118.322852,27.2722654 117.881413,27.3144684 117.431831,27.3992478 C116.984285,27.4840272 116.580509,27.6464899 116.2222,27.8851421 C115.862195,28.1256617 115.562247,28.436395 115.318624,28.8165952 C115.075002,29.1971688 114.952851,29.6838101 114.952851,30.2761455 C114.952851,30.784075 115.050232,31.2075985 115.241602,31.5455957 C115.43365,31.8847133 115.716293,32.1805076 116.087156,32.4348458 C116.457679,32.6880636 116.900815,32.9207401 117.413169,33.1325019 C117.925523,33.3442637 118.502007,33.5631215 119.142959,33.787955 C120.065196,34.1266992 121.026794,34.5012972 122.026054,34.9095081 C123.025654,35.3184661 123.935337,35.8615024 124.755443,36.5386173 C125.575549,37.2157321 126.254164,38.0553097 126.793324,39.055856 C127.330787,40.0582698 127.600875,41.3060584 127.600875,42.8007156 C127.600875,44.5217002 127.312125,46.0100083 126.734963,47.2648929 C126.158479,48.520151 125.38418,49.5569247 124.410028,50.3752141 C123.435876,51.1931299 122.320234,51.799284 121.064457,52.1944233 C119.809358,52.5888156 118.514561,52.7871322 117.182101,52.7871322 C115.235494,52.7871322 113.351659,52.4125342 111.532292,51.6652056 C109.712587,50.9182504 108.199275,49.852719 106.996091,48.470852 L111.301224,43.6473892 C111.967285,44.550458 112.845752,45.3045092 113.934589,45.9106633 C115.023427,46.5175643 116.105818,46.8200811 117.182101,46.8200811 C117.669346,46.8200811 118.143698,46.7640595 118.605496,46.6516427 C119.066275,46.539226 119.469712,46.3551016 119.815805,46.1015103 C120.162577,45.8475456 120.437756,45.5091749 120.642019,45.0856513 C120.847979,44.6628747 120.95011,44.1549452 120.95011,43.5629833 C120.95011,42.9982852 120.821173,42.5191135 120.564996,42.1239742 C120.308819,41.7295819 119.944403,41.369923 119.469712,41.0446241 C118.99536,40.721566 118.406322,40.4246513 117.702259,40.1564944 C116.996839,39.888711 116.195395,39.5996394 115.299962,39.2892795 C114.427942,38.9789197 113.574584,38.6121647 112.74362,38.1886411 C111.909263,37.7658645 111.167876,37.2224547 110.514031,36.559532 C109.860185,35.8969828 109.33392,35.0936326 108.937948,34.1476139 C108.538583,33.2034626 108.340767,32.0535252 108.340767,30.6992956 C108.340767,29.035453 108.648858,27.6102626 109.263004,26.4255918 C109.879187,25.240921 110.687078,24.2680119 111.685999,23.5061177 C112.685259,22.7445969 113.81176,22.1884888 115.068894,21.8348056 C116.324332,21.4829897 117.592324,21.3063348 118.874227,21.3063348 C120.412647,21.3063348 121.980926,21.6170681 123.583136,22.2366674 C125.184328,22.8577606 126.587703,23.7742746 127.792923,24.9877032 L123.602137,29.8533689 Z" id="Fill-55" fill="#333740" mask="url(#mask-2)"></path>
                    <polygon id="Fill-56" fill="#333740" mask="url(#mask-2)" points="8.01742785 52.0112699 14.6607284 52.0112699 14.6607284 27.9820969 8.01742785 32.3092079"></polygon>
                    <polygon id="Fill-57" fill="#333740" mask="url(#mask-2)" points="0.247490853 21.7387845 0.247490853 27.9822089 5.50879216 27.9822089 8.01729213 27.9822089 14.6605927 27.9822089 22.4290367 27.9822089 22.4290367 21.7387845"></polygon>
                </g>
            </g>
        </g>
    </g>
</svg>